# 3ds Max Wavefront OBJ Exporter v0.97b - (c)2007 guruware
# File Created: 08.12.2020 01:29:08

mtllib upperleg_R_1.mtl

#
# object upperleg_R_1
#

v  -796.8184 1797.5780 496.1924
v  -673.7231 1823.8179 500.6196
v  -606.0206 2120.4807 520.6602
v  -831.0361 2281.9900 469.7070
v  -916.1436 2194.1150 367.2456
v  -918.9023 1797.7843 444.7190
v  -860.8708 1338.0026 431.7314
v  -744.9990 1335.0114 427.2441
v  -914.2996 1613.1650 429.5139
v  -449.7400 1902.3116 473.4692
v  -387.6016 2066.0776 496.6926
v  -556.1754 1331.7828 420.9600
v  -380.9583 1927.0823 331.7366
v  -316.9033 2065.7637 336.2870
v  -406.0173 1632.4926 327.2288
v  -361.7664 1680.3492 183.1531
v  -332.4678 1933.0042 169.9557
v  -932.2764 1663.9424 245.2148
v  -939.5254 1784.7336 216.3318
v  -907.6021 2350.7612 213.4650
v  -879.3611 2104.4053 -189.3218
v  -955.3235 1760.9368 -100.8485
v  -863.1580 2577.2180 250.0685
v  -859.8406 2004.1941 -263.2856
v  -885.7759 1529.9219 -208.8245
v  -833.3132 2485.1387 -165.1257
v  -813.4531 1912.6165 -322.0313
v  -737.9309 2455.9980 -257.1377
v  -319.0361 1907.3370 10.0447
v  -344.3223 1653.5815 22.0963
v  -294.5635 2054.3682 149.7600
v  -429.5999 1438.3380 -181.9214
v  -376.3792 1804.9006 -217.9756
v  -259.8164 2297.7920 22.5144
v  -544.1265 1380.0629 -256.9785
v  -461.0444 1762.1431 -297.8838
v  -281.0693 2188.3264 -190.7690
v  -714.7316 1408.0941 -273.2036
v  -668.1988 1819.7920 -318.3899
v  -422.8903 2360.6919 -312.6670
v  -705.3076 2445.8130 -321.7041
v  -572.9869 2404.7224 -319.9937
v  -576.0152 2587.1067 462.1357
v  -771.7150 2606.3691 394.8525
v  -760.9263 2638.9546 241.0568
v  -366.9922 2555.8440 405.4803
v  -295.4119 2546.3545 259.7962
v  -264.2288 2535.3135 70.5950
v  -299.4600 2530.5662 -14.1456
v  -338.9961 2531.8765 -158.6594
v  -405.9689 2554.9414 -273.0601
v  -543.4050 2585.7842 -275.2146
v  -645.2715 2603.7827 -270.7866
v  -682.1210 2605.9487 -244.6284
v  -737.0681 2611.8364 -143.4534
v  -561.6066 2620.2539 349.9666
v  -627.2456 2673.6162 -60.0298
v  -424.3516 2612.9529 313.6458
v  -626.0082 2662.7214 -97.3523
v  -364.3988 2606.7046 217.5342
v  -589.0426 2652.8123 -135.1609
v  -354.4951 2615.9087 106.3208
v  -522.0129 2640.5664 -144.1686
v  -366.4910 2626.6187 16.4180
v  -404.4966 2626.6309 -81.3206
v  -441.9803 2627.0808 -130.7552
v  -879.2911 1464.9932 320.1069
v  -750.4196 1441.9502 330.9741
v  -533.6987 1424.4301 338.2631
v  -528.0110 1475.8214 312.6133
v  -528.4869 1494.1104 110.0791
v  -515.9158 1455.8037 1.2273
v  -728.6876 1512.7159 81.1760
v  -760.2747 1331.8523 -159.2337
v  -885.7758 1529.9219 -208.8244
v  -536.0673 1360.6106 -132.9724
v  -687.6891 1422.2271 -101.1359
v  -634.2606 1316.0118 -169.2147
v  -875.3907 1531.7941 51.0136
v  -865.0516 1461.9521 -82.8768
# 80 vertices

vn -0.1958 -0.0429 0.9797
vn 0.0750 -0.1212 0.9898
vn -0.0334 0.0278 0.9991
vn -0.5216 0.1902 0.8317
vn -0.9513 0.1485 0.2701
vn -0.7881 0.0287 0.6148
vn -0.4862 -0.8300 0.2735
vn -0.0100 -0.9586 0.2845
vn -0.8477 -0.1194 0.5169
vn 0.5856 -0.2579 0.7684
vn 0.5911 -0.1099 0.7991
vn 0.3846 -0.8826 0.2705
vn 0.9086 -0.2580 0.3284
vn 0.9414 -0.2030 0.2695
vn 0.8532 -0.3056 0.4226
vn 0.9156 -0.3678 0.1626
vn 0.9617 -0.1883 0.1991
vn -0.5099 -0.2920 -0.8092
vn -0.9977 0.0071 0.0679
vn -0.9864 0.1577 -0.0472
vn -0.9429 0.1409 -0.3019
vn -0.9750 -0.0197 -0.2213
vn -0.7348 0.6102 0.2961
vn -0.8287 0.1011 -0.5505
vn -0.8117 -0.5287 -0.2481
vn -0.8216 0.3541 -0.4467
vn -0.4315 -0.0466 -0.9009
vn -0.7457 0.2683 -0.6099
vn 0.9909 -0.1262 -0.0465
vn 0.9403 -0.3397 0.0187
vn 0.9650 -0.2369 -0.1125
vn 0.8113 -0.5293 -0.2483
vn 0.8732 -0.1697 -0.4568
vn 0.9627 0.1142 0.2452
vn 0.3493 -0.6070 -0.7138
vn 0.4370 -0.1332 -0.8895
vn 0.9021 -0.0684 -0.4260
vn -0.2457 -0.4575 -0.8546
vn 0.0303 -0.0658 -0.9974
vn 0.3866 0.0586 -0.9204
vn -0.4533 0.2559 -0.8538
vn 0.0632 0.1083 -0.9921
vn 0.0380 0.6009 0.7984
vn -0.6086 0.6535 0.4500
vn -0.2253 0.9739 0.0259
vn 0.5978 0.4977 0.6284
vn 0.8697 0.4250 0.2510
vn 0.9219 0.3577 -0.1491
vn 0.8774 0.3717 -0.3034
vn 0.8455 0.4283 -0.3189
vn 0.5206 0.4899 -0.6993
vn 0.1147 0.6315 -0.7668
vn -0.1429 0.6970 -0.7027
vn -0.5230 0.6622 -0.5366
vn -0.5986 0.7678 -0.2283
vn 0.0442 0.9736 0.2238
vn 0.2262 0.9740 -0.0154
vn 0.2466 0.9392 0.2390
vn 0.0289 0.9771 -0.2108
vn 0.4005 0.9065 0.1334
vn 0.0974 0.9718 -0.2150
vn 0.3929 0.9157 0.0839
vn 0.1745 0.9566 -0.2335
vn 0.3414 0.9398 -0.0178
vn 0.3765 0.9056 -0.1952
vn 0.2775 0.9261 -0.2556
vn -0.6718 -0.6494 -0.3563
vn -0.0779 -0.8397 -0.5375
vn 0.7681 -0.4407 -0.4646
vn 0.6532 -0.5655 -0.5035
vn 0.9445 -0.3062 0.1188
vn 0.3901 -0.8091 0.4395
vn -0.1185 -0.9902 0.0742
vn -0.3984 -0.9061 0.1425
vn -0.5725 -0.7967 0.1936
vn 0.3514 -0.8787 0.3232
vn -0.1512 -0.7650 0.6261
vn 0.0160 -0.9953 0.0960
vn -0.7017 -0.7117 0.0327
vn -0.7180 -0.6526 0.2422
# 80 vertex normals

vt 0.0000 0.0000 0.0000
# 1 texture coords

o upperleg_R_1
g upperleg_R_1
usemtl default
s 1
f 1/1/1 2/1/2 3/1/3 4/1/4 
f 1/1/1 4/1/4 5/1/5 6/1/6 
f 7/1/7 8/1/8 2/1/2 1/1/1 
f 1/1/1 6/1/6 9/1/9 7/1/7 
f 10/1/10 11/1/11 3/1/3 2/1/2 
f 12/1/12 10/1/10 2/1/2 8/1/8 
f 11/1/11 10/1/10 13/1/13 14/1/14 
f 10/1/10 12/1/12 15/1/15 13/1/13 
f 13/1/13 15/1/15 16/1/16 17/1/17 
f 18/1/18 9/1/9 6/1/6 19/1/19 
f 19/1/19 6/1/6 5/1/5 20/1/20 
f 21/1/21 22/1/22 19/1/19 20/1/20 
f 20/1/20 5/1/5 4/1/4 23/1/23 
f 22/1/22 21/1/21 24/1/24 25/1/25 
f 26/1/26 21/1/21 20/1/20 23/1/23 
f 27/1/27 25/1/25 24/1/24 
f 28/1/28 24/1/24 21/1/21 26/1/26 
f 29/1/29 17/1/17 16/1/16 30/1/30 
f 14/1/14 13/1/13 17/1/17 31/1/31 
f 30/1/30 32/1/32 33/1/33 29/1/29 
f 31/1/31 17/1/17 29/1/29 34/1/34 
f 32/1/32 35/1/35 36/1/36 33/1/33 
f 29/1/29 33/1/33 37/1/37 34/1/34 
f 36/1/36 35/1/35 38/1/38 39/1/39 
f 39/1/39 38/1/38 25/1/25 27/1/27 
f 37/1/37 33/1/33 36/1/36 40/1/40 
f 41/1/41 27/1/27 24/1/24 28/1/28 
f 40/1/40 36/1/36 39/1/39 42/1/42 
f 42/1/42 39/1/39 27/1/27 41/1/41 
f 43/1/43 44/1/44 4/1/4 3/1/3 
f 23/1/23 4/1/4 44/1/44 45/1/45 
f 3/1/3 11/1/11 46/1/46 43/1/43 
f 46/1/46 11/1/11 14/1/14 47/1/47 
f 47/1/47 14/1/14 31/1/31 48/1/48 
f 48/1/48 31/1/31 34/1/34 49/1/49 
f 34/1/34 37/1/37 50/1/50 49/1/49 
f 50/1/50 37/1/37 40/1/40 51/1/51 
f 51/1/51 40/1/40 42/1/42 52/1/52 
f 42/1/42 41/1/41 53/1/53 52/1/52 
f 53/1/53 41/1/41 28/1/28 54/1/54 
f 55/1/55 26/1/26 23/1/23 45/1/45 
f 28/1/28 26/1/26 55/1/55 54/1/54 
f 44/1/44 43/1/43 56/1/56 45/1/45 
f 57/1/57 55/1/55 45/1/45 56/1/56 
f 56/1/56 43/1/43 46/1/46 58/1/58 
f 57/1/57 56/1/56 58/1/58 59/1/59 
f 59/1/59 54/1/54 55/1/55 57/1/57 
f 58/1/58 46/1/46 47/1/47 60/1/60 
f 59/1/59 58/1/58 60/1/60 61/1/61 
f 61/1/61 53/1/53 54/1/54 59/1/59 
f 47/1/47 48/1/48 62/1/62 60/1/60 
f 61/1/61 60/1/60 62/1/62 63/1/63 
f 52/1/52 53/1/53 61/1/61 63/1/63 
f 48/1/48 49/1/49 64/1/64 62/1/62 
f 49/1/49 50/1/50 65/1/65 64/1/64 
f 63/1/63 62/1/62 64/1/64 66/1/66 
f 64/1/64 65/1/65 66/1/66 
f 50/1/50 51/1/51 66/1/66 65/1/65 
f 66/1/66 51/1/51 52/1/52 63/1/63 
f 18/1/18 67/1/67 7/1/7 9/1/9 
f 8/1/8 68/1/68 69/1/69 12/1/12 
f 70/1/70 15/1/15 12/1/12 69/1/69 
f 70/1/70 71/1/71 16/1/16 15/1/15 
f 71/1/71 72/1/72 30/1/30 16/1/16 
f 73/1/73 70/1/70 69/1/69 68/1/68 
f 73/1/73 72/1/72 71/1/71 70/1/70 
f 25/1/25 38/1/38 74/1/74 75/1/75 
f 76/1/76 32/1/32 30/1/30 72/1/72 
f 77/1/77 76/1/76 72/1/72 73/1/73 
f 35/1/35 32/1/32 76/1/76 
f 38/1/38 35/1/35 78/1/78 74/1/74 
f 79/1/79 22/1/22 25/1/25 75/1/75 
f 79/1/79 75/1/75 80/1/80 
f 67/1/67 22/1/22 79/1/79 
f 73/1/73 79/1/79 80/1/80 77/1/77 
f 67/1/67 79/1/79 73/1/73 68/1/68 
f 8/1/8 7/1/7 67/1/67 68/1/68 
f 22/1/22 67/1/67 18/1/18 19/1/19 
f 76/1/76 78/1/78 35/1/35 
f 76/1/76 77/1/77 78/1/78 
f 77/1/77 80/1/80 74/1/74 78/1/78 
f 74/1/74 80/1/80 75/1/75 
# 74 polygons - 8 triangles

