# 3ds Max Wavefront OBJ Exporter v0.97b - (c)2007 guruware
# File Created: 08.12.2020 01:29:08

mtllib upperleg_L_1.mtl

#
# object upperleg_L_1
#

v  796.8184 1797.5780 496.1923
v  831.0361 2281.9900 469.7068
v  606.0206 2120.4807 520.6600
v  673.7231 1823.8179 500.6194
v  918.9023 1797.7843 444.7188
v  916.1436 2194.1150 367.2454
v  860.8708 1338.0026 431.7313
v  744.9990 1335.0114 427.2440
v  914.2996 1613.1650 429.5137
v  449.7400 1902.3116 473.4690
v  387.6016 2066.0776 496.6924
v  556.1754 1331.7828 420.9599
v  316.9033 2065.7637 336.2868
v  380.9583 1927.0823 331.7364
v  406.0173 1632.4926 327.2286
v  332.4678 1933.0042 169.9555
v  361.7664 1680.3492 183.1530
v  932.2764 1663.9424 245.2146
v  939.5254 1784.7336 216.3316
v  907.6021 2350.7612 213.4648
v  879.3611 2104.4053 -189.3220
v  955.3235 1760.9368 -100.8487
v  863.1580 2577.2180 250.0683
v  885.7759 1529.9219 -208.8246
v  859.8406 2004.1941 -263.2858
v  833.3132 2485.1387 -165.1259
v  813.4531 1912.6165 -322.0315
v  737.9309 2455.9980 -257.1379
v  319.0361 1907.3370 10.0445
v  344.3223 1653.5815 22.0962
v  294.5635 2054.3682 149.7598
v  376.3792 1804.9006 -217.9757
v  429.5999 1438.3380 -181.9215
v  259.8164 2297.7920 22.5142
v  461.0444 1762.1431 -297.8840
v  544.1265 1380.0629 -256.9787
v  281.0693 2188.3264 -190.7692
v  668.1988 1819.7920 -318.3900
v  714.7316 1408.0941 -273.2037
v  422.8903 2360.6919 -312.6672
v  705.3076 2445.8130 -321.7043
v  572.9869 2404.7224 -319.9939
v  576.0152 2587.1067 462.1355
v  771.7150 2606.3691 394.8523
v  760.9263 2638.9546 241.0566
v  366.9922 2555.8440 405.4801
v  295.4119 2546.3545 259.7960
v  264.2288 2535.3135 70.5948
v  299.4600 2530.5662 -14.1458
v  338.9961 2531.8765 -158.6596
v  405.9689 2554.9414 -273.0603
v  543.4050 2585.7842 -275.2148
v  645.2715 2603.7827 -270.7868
v  682.1210 2605.9487 -244.6286
v  737.0681 2611.8364 -143.4536
v  561.6066 2620.2539 349.9664
v  627.2456 2673.6162 -60.0300
v  424.3516 2612.9529 313.6456
v  626.0082 2662.7214 -97.3525
v  364.3988 2606.7046 217.5340
v  589.0426 2652.8123 -135.1611
v  354.4951 2615.9087 106.3206
v  522.0129 2640.5664 -144.1688
v  366.4910 2626.6187 16.4178
v  404.4966 2626.6309 -81.3208
v  441.9803 2627.0808 -130.7554
v  879.2911 1464.9932 320.1068
v  533.6987 1424.4301 338.2629
v  750.4196 1441.9502 330.9739
v  528.0110 1475.8214 312.6131
v  528.4869 1494.1104 110.0789
v  515.9158 1455.8037 1.2272
v  728.6876 1512.7159 81.1759
v  885.7758 1529.9219 -208.8245
v  760.2747 1331.8523 -159.2338
v  536.0673 1360.6106 -132.9725
v  687.6891 1422.2271 -101.1360
v  634.2606 1316.0118 -169.2148
v  875.3907 1531.7941 51.0135
v  865.0516 1461.9521 -82.8769
# 80 vertices

vn 0.1958 -0.0429 0.9797
vn 0.5216 0.1902 0.8317
vn 0.0334 0.0278 0.9991
vn -0.0750 -0.1212 0.9898
vn 0.7881 0.0287 0.6148
vn 0.9513 0.1485 0.2701
vn 0.4862 -0.8300 0.2735
vn 0.0100 -0.9586 0.2845
vn 0.8477 -0.1194 0.5169
vn -0.5856 -0.2579 0.7684
vn -0.5911 -0.1099 0.7991
vn -0.3846 -0.8826 0.2705
vn -0.9414 -0.2030 0.2695
vn -0.9086 -0.2580 0.3284
vn -0.8532 -0.3056 0.4226
vn -0.9617 -0.1883 0.1991
vn -0.9156 -0.3678 0.1626
vn 0.5099 -0.2920 -0.8092
vn 0.9977 0.0071 0.0679
vn 0.9864 0.1577 -0.0472
vn 0.9429 0.1409 -0.3019
vn 0.9750 -0.0197 -0.2213
vn 0.7348 0.6102 0.2961
vn 0.7553 -0.5421 -0.3682
vn 0.8287 0.1011 -0.5505
vn 0.8216 0.3541 -0.4467
vn 0.4315 -0.0466 -0.9009
vn 0.7457 0.2683 -0.6099
vn -0.9909 -0.1262 -0.0465
vn -0.9403 -0.3397 0.0187
vn -0.9650 -0.2369 -0.1125
vn -0.8732 -0.1697 -0.4568
vn -0.8113 -0.5293 -0.2483
vn -0.9627 0.1142 0.2452
vn -0.4370 -0.1332 -0.8895
vn -0.3493 -0.6070 -0.7138
vn -0.9021 -0.0684 -0.4260
vn -0.0303 -0.0658 -0.9974
vn 0.2457 -0.4575 -0.8546
vn -0.3866 0.0586 -0.9204
vn 0.4533 0.2559 -0.8538
vn -0.0632 0.1083 -0.9921
vn -0.0380 0.6009 0.7984
vn 0.6086 0.6535 0.4500
vn 0.2253 0.9739 0.0259
vn -0.5978 0.4977 0.6284
vn -0.8697 0.4250 0.2510
vn -0.9219 0.3577 -0.1491
vn -0.8774 0.3717 -0.3034
vn -0.8455 0.4283 -0.3189
vn -0.5206 0.4899 -0.6993
vn -0.1147 0.6315 -0.7668
vn 0.1429 0.6970 -0.7027
vn 0.5230 0.6622 -0.5366
vn 0.5986 0.7678 -0.2283
vn -0.0442 0.9736 0.2238
vn -0.2262 0.9740 -0.0154
vn -0.2466 0.9392 0.2390
vn -0.0289 0.9771 -0.2108
vn -0.4005 0.9065 0.1334
vn -0.0974 0.9718 -0.2150
vn -0.3929 0.9157 0.0839
vn -0.1745 0.9566 -0.2335
vn -0.3414 0.9398 -0.0178
vn -0.3765 0.9056 -0.1952
vn -0.2775 0.9261 -0.2556
vn 0.6718 -0.6494 -0.3563
vn -0.7681 -0.4407 -0.4646
vn 0.0779 -0.8397 -0.5375
vn -0.6532 -0.5655 -0.5035
vn -0.9445 -0.3062 0.1188
vn -0.3901 -0.8091 0.4395
vn 0.1185 -0.9902 0.0742
vn 0.2293 -0.9712 -0.0644
vn 0.3984 -0.9061 0.1425
vn -0.3514 -0.8787 0.3232
vn 0.1512 -0.7650 0.6261
vn -0.0160 -0.9953 0.0960
vn 0.7017 -0.7117 0.0327
vn 0.7180 -0.6526 0.2422
# 80 vertex normals

vt 0.0000 0.0000 0.0000
# 1 texture coords

o upperleg_L_1
g upperleg_L_1
usemtl default
s 1
f 1/1/1 2/1/2 3/1/3 4/1/4 
f 1/1/1 5/1/5 6/1/6 2/1/2 
f 7/1/7 1/1/1 4/1/4 8/1/8 
f 1/1/1 7/1/7 9/1/9 5/1/5 
f 10/1/10 4/1/4 3/1/3 11/1/11 
f 12/1/12 8/1/8 4/1/4 10/1/10 
f 11/1/11 13/1/13 14/1/14 10/1/10 
f 10/1/10 14/1/14 15/1/15 12/1/12 
f 14/1/14 16/1/16 17/1/17 15/1/15 
f 18/1/18 19/1/19 5/1/5 9/1/9 
f 19/1/19 20/1/20 6/1/6 5/1/5 
f 21/1/21 20/1/20 19/1/19 22/1/22 
f 20/1/20 23/1/23 2/1/2 6/1/6 
f 22/1/22 24/1/24 25/1/25 21/1/21 
f 26/1/26 23/1/23 20/1/20 21/1/21 
f 27/1/27 25/1/25 24/1/24 
f 28/1/28 26/1/26 21/1/21 25/1/25 
f 29/1/29 30/1/30 17/1/17 16/1/16 
f 13/1/13 31/1/31 16/1/16 14/1/14 
f 30/1/30 29/1/29 32/1/32 33/1/33 
f 31/1/31 34/1/34 29/1/29 16/1/16 
f 33/1/33 32/1/32 35/1/35 36/1/36 
f 29/1/29 34/1/34 37/1/37 32/1/32 
f 35/1/35 38/1/38 39/1/39 36/1/36 
f 38/1/38 27/1/27 24/1/24 39/1/39 
f 37/1/37 40/1/40 35/1/35 32/1/32 
f 41/1/41 28/1/28 25/1/25 27/1/27 
f 40/1/40 42/1/42 38/1/38 35/1/35 
f 42/1/42 41/1/41 27/1/27 38/1/38 
f 43/1/43 3/1/3 2/1/2 44/1/44 
f 23/1/23 45/1/45 44/1/44 2/1/2 
f 3/1/3 43/1/43 46/1/46 11/1/11 
f 46/1/46 47/1/47 13/1/13 11/1/11 
f 47/1/47 48/1/48 31/1/31 13/1/13 
f 48/1/48 49/1/49 34/1/34 31/1/31 
f 34/1/34 49/1/49 50/1/50 37/1/37 
f 50/1/50 51/1/51 40/1/40 37/1/37 
f 51/1/51 52/1/52 42/1/42 40/1/40 
f 42/1/42 52/1/52 53/1/53 41/1/41 
f 53/1/53 54/1/54 28/1/28 41/1/41 
f 55/1/55 45/1/45 23/1/23 26/1/26 
f 28/1/28 54/1/54 55/1/55 26/1/26 
f 44/1/44 45/1/45 56/1/56 43/1/43 
f 57/1/57 56/1/56 45/1/45 55/1/55 
f 56/1/56 58/1/58 46/1/46 43/1/43 
f 57/1/57 59/1/59 58/1/58 56/1/56 
f 59/1/59 57/1/57 55/1/55 54/1/54 
f 58/1/58 60/1/60 47/1/47 46/1/46 
f 59/1/59 61/1/61 60/1/60 58/1/58 
f 61/1/61 59/1/59 54/1/54 53/1/53 
f 47/1/47 60/1/60 62/1/62 48/1/48 
f 61/1/61 63/1/63 62/1/62 60/1/60 
f 52/1/52 63/1/63 61/1/61 53/1/53 
f 48/1/48 62/1/62 64/1/64 49/1/49 
f 49/1/49 64/1/64 65/1/65 50/1/50 
f 63/1/63 66/1/66 64/1/64 62/1/62 
f 64/1/64 66/1/66 65/1/65 
f 50/1/50 65/1/65 66/1/66 51/1/51 
f 66/1/66 63/1/63 52/1/52 51/1/51 
f 18/1/18 9/1/9 7/1/7 67/1/67 
f 8/1/8 12/1/12 68/1/68 69/1/69 
f 70/1/70 68/1/68 12/1/12 15/1/15 
f 70/1/70 15/1/15 17/1/17 71/1/71 
f 71/1/71 17/1/17 30/1/30 72/1/72 
f 73/1/73 69/1/69 68/1/68 70/1/70 
f 73/1/73 70/1/70 71/1/71 72/1/72 
f 24/1/24 74/1/74 75/1/75 39/1/39 
f 76/1/76 72/1/72 30/1/30 33/1/33 
f 77/1/77 73/1/73 72/1/72 76/1/76 
f 36/1/36 76/1/76 33/1/33 
f 39/1/39 75/1/75 78/1/78 36/1/36 
f 79/1/79 80/1/80 74/1/74 24/1/24 
f 79/1/79 24/1/24 22/1/22 
f 67/1/67 79/1/79 22/1/22 
f 73/1/73 77/1/77 80/1/80 79/1/79 
f 67/1/67 69/1/69 73/1/73 79/1/79 
f 8/1/8 69/1/69 67/1/67 7/1/7 
f 22/1/22 19/1/19 18/1/18 67/1/67 
f 76/1/76 36/1/36 78/1/78 
f 76/1/76 78/1/78 77/1/77 
f 77/1/77 78/1/78 75/1/75 80/1/80 
f 75/1/75 74/1/74 80/1/80 
# 74 polygons - 8 triangles

